<svg width="223" height="55" viewBox="0 0 223 55" fill="none" xmlns="http://www.w3.org/2000/svg">
<path d="M30.5831 36.9745C35.726 36.9745 39.8952 32.7941 39.8952 27.6372C39.8952 22.4804 35.726 18.2999 30.5831 18.2999C25.4401 18.2999 21.271 22.4804 21.271 27.6372C21.271 32.7941 25.4401 36.9745 30.5831 36.9745Z" fill="#E9E4D8"/>
<path d="M30.312 0.190147C13.9114 -0.344074 0.199237 12.9852 0.181836 29.5022C0.173135 39.3197 4.94977 48.0073 12.2931 53.3408C12.9978 53.8049 13.6417 53.4634 14.0245 53.2094C14.329 52.9992 14.3377 52.5613 14.3377 52.3599C14.3377 50.4682 14.1985 41.6755 14.1985 41.6755C14.1985 41.6755 14.1985 33.3381 14.0941 28.2587C14.0767 27.3041 14.1985 26.2619 14.4247 25.1847C15.8951 17.7494 22.4206 12.1444 30.2424 12.1444C39.1518 12.1444 46.3733 19.4134 46.3733 28.3813C46.3733 36.2457 40.8224 42.7965 33.4442 44.294C33.3485 44.3378 33.2789 44.3904 33.2441 44.4342C33.2528 44.583 33.2789 44.7232 33.3485 44.8633C33.3746 44.8896 33.3833 44.9158 33.392 44.9509C33.4442 45.0385 33.5051 45.1173 33.5748 45.1873L43.0932 54.5143C43.4499 54.8646 43.9981 54.9259 44.4244 54.6632C52.8727 49.5224 58.5194 40.1867 58.5194 29.5285C58.5194 13.642 45.9731 0.706853 30.312 0.190147Z" fill="#E9E4D8"/>
<path d="M217.459 35.1878C216.457 35.1878 215.551 34.9546 214.741 34.4881C213.945 34.0216 213.309 33.3866 212.833 32.5832C212.371 31.7668 212.133 30.8532 212.12 29.8424V20.6678C212.12 20.4346 212.185 20.2531 212.313 20.1236C212.454 19.981 212.641 19.9097 212.872 19.9097C213.09 19.9097 213.264 19.981 213.392 20.1236C213.534 20.2531 213.604 20.4346 213.604 20.6678V26.3825C214.028 25.7735 214.587 25.2875 215.281 24.9247C215.988 24.5489 216.771 24.361 217.632 24.361C218.621 24.361 219.508 24.6007 220.292 25.0802C221.075 25.5467 221.692 26.1881 222.142 27.0045C222.604 27.8209 222.835 28.741 222.835 29.7647C222.835 30.8014 222.598 31.7279 222.122 32.5443C221.66 33.3607 221.024 34.0086 220.214 34.4881C219.405 34.9546 218.486 35.1878 217.459 35.1878ZM217.459 33.8272C218.204 33.8272 218.872 33.6522 219.463 33.3024C220.054 32.9395 220.516 32.4536 220.85 31.8445C221.197 31.2355 221.371 30.5422 221.371 29.7647C221.371 29.0001 221.197 28.3133 220.85 27.7043C220.516 27.0823 220.054 26.5963 219.463 26.2464C218.872 25.8966 218.204 25.7216 217.459 25.7216C216.726 25.7216 216.065 25.8966 215.474 26.2464C214.883 26.5963 214.42 27.0823 214.086 27.7043C213.752 28.3133 213.585 29.0001 213.585 29.7647C213.585 30.5422 213.752 31.2355 214.086 31.8445C214.42 32.4536 214.883 32.9395 215.474 33.3024C216.065 33.6522 216.726 33.8272 217.459 33.8272Z" fill="#E9E4D8"/>
<path d="M202.316 35.207C201.404 35.207 200.588 35.0191 199.868 34.6433C199.149 34.2546 198.577 33.6909 198.153 32.9522C197.742 32.2136 197.537 31.313 197.537 30.2504V25.1966C197.537 24.9892 197.607 24.8143 197.749 24.6718C197.89 24.5292 198.063 24.4579 198.269 24.4579C198.487 24.4579 198.667 24.5292 198.809 24.6718C198.95 24.8143 199.021 24.9892 199.021 25.1966V30.2504C199.021 31.0538 199.168 31.7147 199.464 32.233C199.772 32.7514 200.183 33.1401 200.697 33.3993C201.224 33.6585 201.815 33.7881 202.47 33.7881C203.1 33.7881 203.665 33.665 204.166 33.4187C204.68 33.1725 205.085 32.8356 205.38 32.408C205.676 31.9804 205.823 31.4944 205.823 30.9502H206.883C206.845 31.7665 206.62 32.4987 206.209 33.1466C205.811 33.7816 205.271 34.287 204.59 34.6628C203.909 35.0256 203.151 35.207 202.316 35.207ZM206.556 35.0904C206.337 35.0904 206.157 35.0256 206.016 34.896C205.888 34.7535 205.823 34.5656 205.823 34.3323V25.1966C205.823 24.9763 205.888 24.8013 206.016 24.6718C206.157 24.5292 206.337 24.4579 206.556 24.4579C206.774 24.4579 206.954 24.5292 207.095 24.6718C207.237 24.8013 207.307 24.9763 207.307 25.1966V34.3323C207.307 34.5656 207.237 34.7535 207.095 34.896C206.954 35.0256 206.774 35.0904 206.556 35.0904Z" fill="#E9E4D8"/>
<path d="M193.215 35.0906C192.702 35.0906 192.239 34.9481 191.828 34.663C191.43 34.3779 191.115 33.9827 190.884 33.4773C190.665 32.9719 190.556 32.3888 190.556 31.7279V20.6484C190.556 20.4281 190.62 20.2531 190.749 20.1236C190.89 19.981 191.07 19.9097 191.288 19.9097C191.507 19.9097 191.68 19.981 191.809 20.1236C191.95 20.2531 192.021 20.4281 192.021 20.6484V31.7279C192.021 32.2851 192.13 32.7387 192.348 33.0885C192.579 33.4384 192.869 33.6134 193.215 33.6134H193.697C193.89 33.6134 194.044 33.6846 194.16 33.8272C194.275 33.9568 194.333 34.1317 194.333 34.352C194.333 34.5723 194.25 34.7537 194.083 34.8963C193.928 35.0258 193.723 35.0906 193.466 35.0906H193.215Z" fill="#E9E4D8"/>
<path d="M181.757 35.2848C180.716 35.2848 179.74 35.084 178.828 34.6823C177.928 34.2805 177.132 33.7233 176.438 33.0106C175.757 32.2849 175.224 31.4556 174.838 30.5226C174.453 29.5766 174.26 28.5658 174.26 27.4903C174.26 26.4277 174.447 25.4299 174.819 24.4969C175.205 23.5509 175.738 22.7215 176.419 22.0088C177.112 21.2961 177.909 20.7389 178.808 20.3372C179.721 19.9225 180.703 19.7152 181.757 19.7152C182.682 19.7152 183.523 19.8512 184.282 20.1234C185.04 20.3955 185.772 20.8296 186.478 21.4257C186.594 21.5164 186.658 21.6266 186.671 21.7561C186.697 21.8728 186.684 21.9894 186.633 22.106C186.581 22.2097 186.504 22.2874 186.401 22.3393C186.376 22.4429 186.311 22.5207 186.209 22.5725C186.106 22.6244 185.984 22.6438 185.843 22.6308C185.714 22.6179 185.586 22.5596 185.457 22.4559C184.956 22.0153 184.41 21.6913 183.819 21.484C183.228 21.2637 182.541 21.1536 181.757 21.1536C180.922 21.1536 180.138 21.322 179.406 21.659C178.686 21.9959 178.05 22.4559 177.498 23.039C176.945 23.6222 176.509 24.296 176.187 25.0606C175.879 25.8251 175.725 26.635 175.725 27.4903C175.725 28.3715 175.879 29.1943 176.187 29.9589C176.509 30.7234 176.945 31.3973 177.498 31.9804C178.05 32.5635 178.686 33.0236 179.406 33.3605C180.138 33.6844 180.922 33.8464 181.757 33.8464C182.464 33.8464 183.132 33.7298 183.761 33.4966C184.391 33.2633 184.988 32.9264 185.553 32.4858C185.708 32.3562 185.868 32.3044 186.035 32.3303C186.215 32.3562 186.369 32.434 186.498 32.5635C186.626 32.6931 186.69 32.8616 186.69 33.0689C186.69 33.1726 186.671 33.2698 186.633 33.3605C186.607 33.4382 186.556 33.5225 186.478 33.6132C185.823 34.2222 185.091 34.6563 184.282 34.9155C183.472 35.1617 182.631 35.2848 181.757 35.2848Z" fill="#E9E4D8"/>
<path d="M163.291 35.0906C162.777 35.0906 162.315 34.9481 161.903 34.663C161.505 34.3779 161.19 33.9827 160.959 33.4773C160.741 32.9719 160.632 32.3888 160.632 31.7279V20.6484C160.632 20.4281 160.696 20.2531 160.824 20.1236C160.966 19.981 161.145 19.9097 161.364 19.9097C161.582 19.9097 161.756 19.981 161.884 20.1236C162.026 20.2531 162.096 20.4281 162.096 20.6484V31.7279C162.096 32.2851 162.205 32.7387 162.424 33.0885C162.655 33.4384 162.944 33.6134 163.291 33.6134H163.773C163.966 33.6134 164.12 33.6846 164.235 33.8272C164.351 33.9568 164.409 34.1317 164.409 34.352C164.409 34.5723 164.325 34.7537 164.158 34.8963C164.004 35.0258 163.798 35.0906 163.542 35.0906H163.291Z" fill="#E9E4D8"/>
<path d="M151.27 35.1877C150.281 35.1877 149.394 34.9545 148.611 34.488C147.827 34.0085 147.204 33.3606 146.741 32.5442C146.292 31.7278 146.067 30.8078 146.067 29.784C146.067 28.7474 146.298 27.8208 146.761 27.0044C147.236 26.188 147.878 25.5466 148.688 25.0801C149.497 24.6006 150.409 24.3609 151.424 24.3609C152.439 24.3609 153.345 24.6006 154.142 25.0801C154.951 25.5466 155.587 26.188 156.05 27.0044C156.525 27.8208 156.769 28.7474 156.782 29.784L156.184 30.2505C156.184 31.1836 155.966 32.0259 155.529 32.7774C155.105 33.5161 154.521 34.1057 153.775 34.5463C153.043 34.9739 152.208 35.1877 151.27 35.1877ZM151.424 33.8271C152.17 33.8271 152.831 33.6521 153.409 33.3023C154 32.9524 154.463 32.4729 154.797 31.8639C155.144 31.2419 155.317 30.5486 155.317 29.784C155.317 29.0065 155.144 28.3132 154.797 27.7042C154.463 27.0951 154 26.6157 153.409 26.2658C152.831 25.903 152.17 25.7215 151.424 25.7215C150.692 25.7215 150.03 25.903 149.439 26.2658C148.848 26.6157 148.379 27.0951 148.033 27.7042C147.686 28.3132 147.512 29.0065 147.512 29.784C147.512 30.5486 147.686 31.2419 148.033 31.8639C148.379 32.4729 148.848 32.9524 149.439 33.3023C150.03 33.6521 150.692 33.8271 151.424 33.8271ZM156.03 35.0905C155.812 35.0905 155.632 35.0258 155.491 34.8962C155.349 34.7536 155.279 34.5722 155.279 34.3519V31.0281L155.645 29.4925L156.782 29.784V34.3519C156.782 34.5722 156.711 34.7536 156.57 34.8962C156.429 35.0258 156.249 35.0905 156.03 35.0905Z" fill="#E9E4D8"/>
<path d="M141.273 35.0906C141.054 35.0906 140.875 35.0193 140.733 34.8768C140.592 34.7343 140.521 34.5593 140.521 34.352V29.2982C140.521 28.4947 140.367 27.8339 140.059 27.3155C139.763 26.7972 139.352 26.4084 138.825 26.1492C138.311 25.8901 137.727 25.7605 137.072 25.7605C136.442 25.7605 135.87 25.8836 135.356 26.1298C134.855 26.376 134.457 26.7129 134.162 27.1406C133.866 27.5682 133.718 28.0541 133.718 28.5984H132.658C132.684 27.782 132.903 27.0563 133.314 26.4214C133.725 25.7734 134.271 25.2681 134.952 24.9052C135.633 24.5294 136.391 24.3415 137.226 24.3415C138.138 24.3415 138.954 24.5359 139.673 24.9247C140.393 25.3005 140.958 25.8577 141.369 26.5963C141.793 27.3349 142.005 28.2356 142.005 29.2982V34.352C142.005 34.5593 141.935 34.7343 141.793 34.8768C141.652 35.0193 141.478 35.0906 141.273 35.0906ZM132.986 35.0906C132.755 35.0906 132.569 35.0258 132.427 34.8962C132.299 34.7537 132.234 34.5723 132.234 34.352V25.2162C132.234 24.983 132.299 24.8016 132.427 24.672C132.569 24.5294 132.755 24.4582 132.986 24.4582C133.204 24.4582 133.378 24.5294 133.506 24.672C133.648 24.8016 133.718 24.983 133.718 25.2162V34.352C133.718 34.5723 133.648 34.7537 133.506 34.8962C133.378 35.0258 133.204 35.0906 132.986 35.0906Z" fill="#E9E4D8"/>
<path d="M122.642 35.1877C121.614 35.1877 120.696 34.9545 119.886 34.488C119.077 34.0215 118.441 33.38 117.978 32.5636C117.516 31.7472 117.284 30.8207 117.284 29.784C117.284 28.7344 117.516 27.8014 117.978 26.985C118.441 26.1686 119.077 25.5272 119.886 25.0607C120.696 24.5942 121.614 24.3609 122.642 24.3609C123.67 24.3609 124.582 24.5942 125.379 25.0607C126.188 25.5272 126.824 26.1686 127.286 26.985C127.749 27.8014 127.987 28.7344 127.999 29.784C127.999 30.8207 127.762 31.7472 127.286 32.5636C126.824 33.38 126.188 34.0215 125.379 34.488C124.582 34.9545 123.67 35.1877 122.642 35.1877ZM122.642 33.8271C123.387 33.8271 124.055 33.6521 124.646 33.3023C125.237 32.9524 125.7 32.4729 126.034 31.8639C126.368 31.2548 126.535 30.5615 126.535 29.784C126.535 29.0065 126.368 28.3132 126.034 27.7042C125.7 27.0822 125.237 26.5962 124.646 26.2464C124.055 25.8965 123.387 25.7215 122.642 25.7215C121.897 25.7215 121.229 25.8965 120.638 26.2464C120.047 26.5962 119.578 27.0822 119.231 27.7042C118.897 28.3132 118.73 29.0065 118.73 29.784C118.73 30.5615 118.897 31.2548 119.231 31.8639C119.578 32.4729 120.047 32.9524 120.638 33.3023C121.229 33.6521 121.897 33.8271 122.642 33.8271Z" fill="#E9E4D8"/>
<path d="M111.984 35.0903C111.752 35.0903 111.566 35.0255 111.425 34.896C111.296 34.7534 111.232 34.5655 111.232 34.3323V25.2159C111.232 24.9827 111.296 24.8013 111.425 24.6717C111.566 24.5291 111.752 24.4579 111.984 24.4579C112.202 24.4579 112.375 24.5291 112.504 24.6717C112.645 24.8013 112.716 24.9827 112.716 25.2159V34.3323C112.716 34.5655 112.645 34.7534 112.504 34.896C112.375 35.0255 112.202 35.0903 111.984 35.0903ZM111.964 22.4363C111.682 22.4363 111.438 22.3327 111.232 22.1253C111.026 21.918 110.924 21.6653 110.924 21.3673C110.924 21.0433 111.026 20.7906 111.232 20.6092C111.45 20.4148 111.701 20.3176 111.984 20.3176C112.253 20.3176 112.491 20.4148 112.697 20.6092C112.915 20.7906 113.024 21.0433 113.024 21.3673C113.024 21.6653 112.922 21.918 112.716 22.1253C112.51 22.3327 112.26 22.4363 111.964 22.4363Z" fill="#E9E4D8"/>
<path d="M105.945 35.0908C105.264 35.0908 104.654 34.9288 104.114 34.6048C103.587 34.2809 103.17 33.8403 102.862 33.2831C102.553 32.7129 102.399 32.065 102.399 31.3393V21.8342C102.399 21.6139 102.463 21.4325 102.592 21.29C102.733 21.1474 102.913 21.0762 103.131 21.0762C103.35 21.0762 103.53 21.1474 103.671 21.29C103.812 21.4325 103.883 21.6139 103.883 21.8342V31.3393C103.883 32.0002 104.076 32.5444 104.461 32.9721C104.847 33.3867 105.341 33.5941 105.945 33.5941H106.465C106.671 33.5941 106.838 33.6653 106.966 33.8079C107.095 33.9504 107.159 34.1319 107.159 34.3521C107.159 34.5724 107.082 34.7539 106.928 34.8964C106.774 35.026 106.581 35.0908 106.35 35.0908H105.945ZM101.146 26.1494C100.954 26.1494 100.793 26.0911 100.665 25.9745C100.536 25.8449 100.472 25.6894 100.472 25.508C100.472 25.3136 100.536 25.1581 100.665 25.0415C100.793 24.9119 100.954 24.8471 101.146 24.8471H106.061C106.253 24.8471 106.414 24.9119 106.542 25.0415C106.671 25.1581 106.735 25.3136 106.735 25.508C106.735 25.6894 106.671 25.8449 106.542 25.9745C106.414 26.0911 106.253 26.1494 106.061 26.1494H101.146Z" fill="#E9E4D8"/>
<path d="M92.074 35.1877C91.0848 35.1877 90.1983 34.9545 89.4145 34.488C88.6308 34.0085 88.0077 33.3606 87.5452 32.5442C87.0955 31.7278 86.8707 30.8078 86.8707 29.784C86.8707 28.7474 87.102 27.8208 87.5645 27.0044C88.0398 26.188 88.6822 25.5466 89.4916 25.0801C90.301 24.6006 91.2132 24.3609 92.2282 24.3609C93.2432 24.3609 94.1489 24.6006 94.9455 25.0801C95.7549 25.5466 96.3909 26.188 96.8534 27.0044C97.3287 27.8208 97.5729 28.7474 97.5857 29.784L96.9883 30.2505C96.9883 31.1836 96.7699 32.0259 96.333 32.7774C95.9091 33.5161 95.3245 34.1057 94.5793 34.5463C93.847 34.9739 93.0119 35.1877 92.074 35.1877ZM92.2282 33.8271C92.9734 33.8271 93.635 33.6521 94.2132 33.3023C94.8042 32.9524 95.2667 32.4729 95.6007 31.8639C95.9476 31.2419 96.1211 30.5486 96.1211 29.784C96.1211 29.0065 95.9476 28.3132 95.6007 27.7042C95.2667 27.0951 94.8042 26.6157 94.2132 26.2658C93.635 25.903 92.9734 25.7215 92.2282 25.7215C91.4959 25.7215 90.8342 25.903 90.2432 26.2658C89.6522 26.6157 89.1833 27.0951 88.8364 27.7042C88.4895 28.3132 88.3161 29.0065 88.3161 29.784C88.3161 30.5486 88.4895 31.2419 88.8364 31.8639C89.1833 32.4729 89.6522 32.9524 90.2432 33.3023C90.8342 33.6521 91.4959 33.8271 92.2282 33.8271ZM96.8341 35.0905C96.6157 35.0905 96.4358 35.0258 96.2945 34.8962C96.1532 34.7536 96.0825 34.5722 96.0825 34.3519V31.0281L96.4487 29.4925L97.5857 29.784V34.3519C97.5857 34.5722 97.515 34.7536 97.3737 34.8962C97.2324 35.0258 97.0525 35.0905 96.8341 35.0905Z" fill="#E9E4D8"/>
<path d="M75.1119 35.0906C74.8935 35.0906 74.7136 35.0194 74.5723 34.8768C74.431 34.7343 74.3603 34.5529 74.3603 34.3326V20.6678C74.3603 20.4475 74.431 20.2661 74.5723 20.1236C74.7136 19.981 74.8935 19.9097 75.1119 19.9097H78.7157C79.6536 19.9097 80.4887 20.1106 81.221 20.5123C81.9533 20.9011 82.525 21.4518 82.9362 22.1645C83.3602 22.8643 83.5721 23.6742 83.5721 24.5942C83.5721 25.4754 83.3602 26.2594 82.9362 26.9462C82.525 27.633 81.9533 28.1708 81.221 28.5595C80.4887 28.9483 79.6536 29.1427 78.7157 29.1427H75.8635V34.3326C75.8635 34.5529 75.7928 34.7343 75.6515 34.8768C75.5102 35.0194 75.3303 35.0906 75.1119 35.0906ZM83.1674 35.0906C83.0004 35.0906 82.8655 35.0582 82.7627 34.9934C82.6728 34.9287 82.5893 34.8315 82.5122 34.7019L78.8121 28.7539L80.3152 28.3652L83.7649 33.9244C83.9576 34.2354 83.9897 34.5075 83.8612 34.7408C83.7456 34.974 83.5143 35.0906 83.1674 35.0906ZM75.8635 27.6848H78.7157C79.3709 27.6848 79.9491 27.5553 80.4501 27.2961C80.9641 27.024 81.3688 26.6546 81.6643 26.1881C81.9597 25.7216 82.1075 25.1903 82.1075 24.5942C82.1075 23.9593 81.9597 23.4021 81.6643 22.9226C81.3688 22.4302 80.9641 22.0479 80.4501 21.7758C79.9491 21.5036 79.3709 21.3676 78.7157 21.3676H75.8635V27.6848Z" fill="#E9E4D8"/>
</svg>
